<?xml version="1.0" encoding="utf-8"?>
<!-- Generator: Adobe Illustrator 23.0.1, SVG Export Plug-In . SVG Version: 6.00 Build 0)  -->
<svg version="1.1" id="ARD_Audiothek" xmlns="http://www.w3.org/2000/svg" xmlns:xlink="http://www.w3.org/1999/xlink" x="0px"
	 y="0px" viewBox="0 0 1024 1024" style="enable-background:new 0 0 1024 1024;" xml:space="preserve">
<style type="text/css">
	.st0{fill:url(#SVGID_1_);}
	.st1{fill:#0F56FB;}
</style>
<g>
	<g>
		<linearGradient id="SVGID_1_" gradientUnits="userSpaceOnUse" x1="957.2673" y1="945.6599" x2="585.9321" y2="302.4886">
			<stop  offset="1.198334e-07" style="stop-color:#0F56FB"/>
			<stop  offset="1" style="stop-color:#0F56FB;stop-opacity:0.7"/>
		</linearGradient>
		<path class="st0" d="M453.4,73L453.4,73c61.2-35.3,139.5-14.4,174.9,46.9l204.8,354.7c35.3,61.2,14.4,139.5-46.9,174.9v0
			c-61.2,35.3-139.5,14.4-174.9-46.9L406.6,247.8C371.2,186.6,392.2,108.3,453.4,73z"/>
		<circle class="st1" cx="896" cy="844.8" r="128"/>
	</g>
	<path class="st1" d="M576,68.4L576,68.4c61.2,35.3,82.2,113.6,46.9,174.9l-384,665.1c-35.3,61.2-113.6,82.2-174.9,46.9l0,0
		C2.8,919.8-18.2,841.5,17.2,780.3l384-665.1C436.5,54,514.8,33,576,68.4z"/>
</g>
</svg>
