<?xml version="1.0" encoding="utf-8"?>
<!-- Generator: Adobe Illustrator 22.1.0, SVG Export Plug-In . SVG Version: 6.00 Build 0)  -->
<svg version="1.1" id="Ebene_1" xmlns="http://www.w3.org/2000/svg" xmlns:xlink="http://www.w3.org/1999/xlink" x="0px" y="0px"
	 viewBox="0 0 300.2 108.1" style="enable-background:new 0 0 300.2 108.1;" xml:space="preserve">
<style type="text/css">
	.st0{fill:#FF0099;}
	.st1{fill:#FFFFFF;}
</style>
<g>
	<g>
		<polygon points="133.4,22.9 150.3,22.9 150.3,68.2 171.1,68.2 171.1,81.5 133.4,81.5 		"/>
		<rect x="176.4" y="22.9" width="16.9" height="58.6"/>
		<g>
			<path d="M197,22.9h18.1l10.1,30.9c1.4,4.4,2.6,9.1,2.6,9.4h0.2c0.1-0.4,1.3-5.1,2.6-9.4l9.7-30.9h16.9l-21.8,58.6h-15.8L197,22.9
				z"/>
		</g>
		<polygon points="261,22.9 261,81.5 300.2,81.5 300.2,67.9 277.5,67.9 277.5,58 297.2,58 297.2,45.3 277.5,45.3 277.5,36.5 
			299.6,36.5 299.6,22.9 		"/>
	</g>
	<g>
		<path d="M49.3,31.4h3.1c1.7,0,2.6-0.8,2.6-2.4c0-1.6-0.9-2.4-2.8-2.4h-2.9V31.4z M32,38.1h1.8c3.4,0,5.2-1.9,5.2-5.7
			c0-3.8-1.6-5.5-5.3-5.5H32C32,26.9,32,38.1,32,38.1z M56.3,42.1l-3.2-5.5c-0.9-1.4-2.5-1.4-3-1.4h-0.7v6.9h-4.9v-7.2h-0.4L44,35.1
			c-1.1,4.5-4.9,7-10.6,7H27V25.8h-0.4l-0.1,0.2l-4.2,16.1h-5.5l-2.9-12.6h-0.3l-0.1,0.2l-2.9,12.4H5L0,22.9h5.4l1.8,7.9
			c0.4,1.6,0.7,3.7,0.7,3.7l0,0.2h0.3l0.1-0.2c0,0,0.4-2.3,0.8-4l1.5-7.6h6.1l1.5,7.6c0.4,1.6,0.8,4,0.8,4l0,0.2h0.3l0.1-0.2
			c0,0,0.3-2.1,0.7-3.7l1.8-7.9h11.6c5.8,0,9.4,2.3,10.4,6.7l0,0.2h0.4l0.1-0.2v-6.6h8.1c3.4,0,7.5,1,7.5,5.8c0,3.4-2.3,4.7-3.6,5.2
			l-0.1,0.1v0.3l0.1,0.1c0.7,0.5,1.5,1.6,2.4,3l2.8,4.8L56.3,42.1L56.3,42.1z"/>
	</g>
	<g>
		<polygon class="st0" points="79,0 49.6,108.1 104.3,108.1 133.7,0 		"/>
		<polygon class="st1" points="102.3,81 102.3,23.4 82.3,23.4 78.5,37.1 86.9,37.1 86.9,81 		"/>
	</g>
</g>
</svg>
